<svg xmlns="http://www.w3.org/2000/svg" viewBox="0 0 32 32" shape-rendering="crispEdges">
  <title>Mihiraki (32px)</title>
  <!-- Simplified for small sizes: no signs, fewer and bolder lines, pixel-aligned. -->
  <rect width="32" height="32" rx="7" fill="#132b57" shape-rendering="geometricPrecision"/>
  <g fill="#fafafb" shape-rendering="geometricPrecision">
    <path d="M3 7Q3 5 5 5H12Q15 5 15 8V27Q14 25.5 12 25.5H5Q3 25.5 3 23.5Z"/>
    <path d="M29 7Q29 5 27 5H20Q17 5 17 8V27Q18 25.5 20 25.5H27Q29 25.5 29 23.5Z"/>
  </g>
  <g fill="#98a4bb">
    <rect x="5" y="8" width="8" height="2"/>
    <rect x="5" y="12" width="6" height="2"/>
    <rect x="5" y="21" width="7" height="2"/>
    <rect x="19" y="8" width="8" height="2"/>
    <rect x="19" y="12" width="6" height="2"/>
    <rect x="19" y="21" width="7" height="2"/>
  </g>
  <rect x="5" y="16" width="8" height="3" fill="#d93036"/>
  <rect x="19" y="16" width="8" height="3" fill="#1f9d55"/>
</svg>
